<?xml version="1.0" encoding="UTF-8" standalone="no"?>
<svg
   viewBox="0 0 512 512"
   version="1.1"
   id="svg1"
   sodipodi:docname="arrows-spin-solid.svg"
   inkscape:version="1.3.2 (091e20e, 2023-11-25, custom)"
   xmlns:inkscape="http://www.inkscape.org/namespaces/inkscape"
   xmlns:sodipodi="http://sodipodi.sourceforge.net/DTD/sodipodi-0.dtd"
   xmlns="http://www.w3.org/2000/svg"
   xmlns:svg="http://www.w3.org/2000/svg">
  <defs
     id="defs1" />
  <sodipodi:namedview
     id="namedview1"
     pagecolor="#000000"
     bordercolor="#000000"
     borderopacity="0.25"
     inkscape:showpageshadow="2"
     inkscape:pageopacity="0.0"
     inkscape:pagecheckerboard="0"
     inkscape:deskcolor="#d1d1d1"
     inkscape:zoom="1.1228082"
     inkscape:cx="118.00769"
     inkscape:cy="190.14824"
     inkscape:window-width="2560"
     inkscape:window-height="1009"
     inkscape:window-x="-8"
     inkscape:window-y="-8"
     inkscape:window-maximized="1"
     inkscape:current-layer="svg1" />
  <!--!Font Awesome Free 6.7.2 by @fontawesome - https://fontawesome.com License - https://fontawesome.com/license/free Copyright 2025 Fonticons, Inc.-->
  <path
     d="m 256,95.999999 c 38.4,0 73.7,13.500001 101.3,36.100001 l -32.6,32.6 c -4.6,4.6 -5.9,11.50001 -3.50001,17.4 C 323.6,188 329.5,192 336,192 h 112 c 8.8,0 16,-7.2 16,-16 V 64 c 0,-6.5 -3.9,-12.3 -9.9,-14.8 -6,-2.5 -12.9,-1.100001 -17.4,3.5 l -34,33.999996 C 363.4,52.6 312.1,32 256,32 c -10.9,0 -21.5,0.8 -32,2.3 v 64.899996 c 10.3,-2.100001 21,-3.199997 32,-3.199997 z M 132.1,154.7 l 32.6,32.6 c 4.6,4.6 11.50001,5.9 17.4,3.50001 C 188,188.4 192,182.5 192,176 V 64 c 0,-8.8 -7.2,-16 -16,-16 H 64 c -6.5,0 -12.3,3.9 -14.8,9.9 -2.5,6 -1.100001,12.9 3.5,17.400001 L 86.699996,109.3 C 52.6,148.6 32,199.9 32,256 c 0,10.9 0.8,21.5 2.3,32 H 99.199996 C 97.099995,277.7 95.999999,267 95.999999,256 95.999999,217.6 109.5,182.3 132.1,154.7 Z M 477.7,224 h -64.9 c 2.1,10.3 3.2,21 3.2,32 0,38.4 -13.5,73.7 -36.1,101.3 l -32.6,-32.6 c -4.6,-4.6 -11.5,-5.9 -17.4,-3.50001 C 324,323.6 320,329.5 320,336 v 112 c 0,8.8 7.2,16 16,16 h 112 c 6.50001,0 12.3,-3.9 14.8,-9.9 2.5,-6 1.1,-12.9 -3.5,-17.4 l -34,-34 C 459.4,363.4 480,312.1 480,256 c 0,-10.9 -0.8,-21.5 -2.3,-32 z M 256,416 c -38.4,0 -73.7,-13.5 -101.3,-36.1 l 32.6,-32.6 c 4.6,-4.6 5.9,-11.5 3.50001,-17.4 C 188.4,324 182.5,320 176,320 H 64 c -8.8,0 -16,7.2 -16,16 v 112 c 0,6.50001 3.9,12.3 9.9,14.8 6,2.5 12.9,1.1 17.400001,-3.5 L 109.3,425.3 c 39.3,34.1 90.6,54.7 146.7,54.7 10.9,0 21.5,-0.8 32,-2.3 v -64.9 c -10.3,2.1 -21,3.2 -32,3.2 z"
     id="path1"
     style="fill:#ffc080;fill-opacity:1;stroke-width:1" />
</svg>
