<?xml version="1.0" encoding="UTF-8" standalone="no"?>
<svg
   viewBox="0 0 640 640"
   version="1.1"
   id="svg1"
   sodipodi:docname="person-walking-arrow-right-solid.svg"
   width="640"
   height="640"
   inkscape:version="1.3.2 (091e20e, 2023-11-25, custom)"
   xmlns:inkscape="http://www.inkscape.org/namespaces/inkscape"
   xmlns:sodipodi="http://sodipodi.sourceforge.net/DTD/sodipodi-0.dtd"
   xmlns="http://www.w3.org/2000/svg"
   xmlns:svg="http://www.w3.org/2000/svg">
  <defs
     id="defs1" />
  <sodipodi:namedview
     id="namedview1"
     pagecolor="#000000"
     bordercolor="#000000"
     borderopacity="0.25"
     inkscape:showpageshadow="2"
     inkscape:pageopacity="0.0"
     inkscape:pagecheckerboard="0"
     inkscape:deskcolor="#d1d1d1"
     inkscape:zoom="0.56140411"
     inkscape:cx="336.65589"
     inkscape:cy="355.35899"
     inkscape:window-width="2560"
     inkscape:window-height="1009"
     inkscape:window-x="-8"
     inkscape:window-y="-8"
     inkscape:window-maximized="1"
     inkscape:current-layer="svg1" />
  <!--!Font Awesome Free 6.7.2 by @fontawesome - https://fontawesome.com License - https://fontawesome.com/license/free Copyright 2025 Fonticons, Inc.-->
  <path
     d="m 224.0322,177.94938 a 42.655839,42.655839 0 1 0 0,-85.311676 42.655839,42.655839 0 1 0 0,85.311676 z m -74.91431,92.86531 c 0.88866,-0.35546 1.68846,-0.71093 2.57712,-1.06639 l -15.01841,56.43012 c -4.97651,18.75079 -0.0889,38.74572 13.06335,53.0532 l 62.8285,68.51594 19.55059,78.29123 c 3.82125,15.19614 19.28399,24.52711 34.48013,20.70586 15.19615,-3.82126 24.52711,-19.284 20.70586,-34.48014 l -20.43926,-81.84589 c -1.68846,-6.93157 -5.15424,-13.24108 -9.95303,-18.4842 l -43.98883,-47.98781 17.1512,-58.20745 8.53117,20.43926 c 3.91012,9.41983 11.10829,17.1512 20.26152,21.77225 l 23.72731,11.81922 c 14.04088,7.02044 31.10322,1.33299 38.12366,-12.70789 7.02044,-14.04088 1.33299,-31.10321 -12.70789,-38.12365 l -19.10626,-9.5087 -13.59655,-32.70281 c -15.285,-36.52406 -51.00927,-60.34024 -90.64365,-60.34024 -20.26152,0 -40.25645,4.26559 -58.74065,12.44129 l -7.1093,3.11032 C 89.577455,234.9127 67.183135,259.61754 57.14124,289.92095 l -2.310524,6.93158 c -4.976515,14.92954 3.110321,31.01435 17.950999,35.99086 14.84068,4.97652 31.014345,-3.11032 35.990855,-17.951 l 2.31053,-6.93157 c 5.06538,-15.19614 16.26254,-27.4597 30.83661,-33.94694 l 7.10931,-3.11032 z m -26.6599,120.05841 -22.21658,55.45259 -52.697734,52.7866 c -11.108291,11.1083 -11.108291,29.14816 0,40.25645 11.108292,11.10829 29.148159,11.10829 40.256449,0 l 54.741655,-54.83052 c 4.08785,-4.08786 7.28704,-8.9755 9.41983,-14.30748 l 12.88562,-32.16961 -36.1686,-39.45665 c -2.22166,-2.3994 -4.26558,-4.97652 -6.22064,-7.64251 z M 528.48825,228.95865 c -11.10829,-11.10829 -29.14816,-11.10829 -40.25645,0 -11.10829,11.10829 -11.10829,29.14816 0,40.25645 l 22.57205,22.48318 H 380.43694 c -15.72934,0 -28.43722,12.70789 -28.43722,28.43723 0,15.72934 12.70788,28.43722 28.43722,28.43722 h 130.36691 l -22.57205,22.57205 c -11.10829,11.10829 -11.10829,29.14816 0,40.25645 11.10829,11.10829 29.14816,11.10829 40.25645,0 l 71.09306,-71.09307 c 11.10829,-11.10829 11.10829,-29.14815 0,-40.25644 z"
     id="path1"
     style="fill:#ffffff;fill-opacity:1;stroke-width:0.888663" />
</svg>
