<?xml version="1.0" encoding="UTF-8" standalone="no"?>
<svg
   viewBox="0 0 512 512"
   version="1.1"
   id="svg1"
   sodipodi:docname="route-solid.svg"
   inkscape:version="1.3.2 (091e20e, 2023-11-25, custom)"
   xmlns:inkscape="http://www.inkscape.org/namespaces/inkscape"
   xmlns:sodipodi="http://sodipodi.sourceforge.net/DTD/sodipodi-0.dtd"
   xmlns="http://www.w3.org/2000/svg"
   xmlns:svg="http://www.w3.org/2000/svg">
  <defs
     id="defs1" />
  <sodipodi:namedview
     id="namedview1"
     pagecolor="#000000"
     bordercolor="#000000"
     borderopacity="0.25"
     inkscape:showpageshadow="2"
     inkscape:pageopacity="0.0"
     inkscape:pagecheckerboard="0"
     inkscape:deskcolor="#d1d1d1"
     inkscape:zoom="0.79394531"
     inkscape:cx="39.04551"
     inkscape:cy="437.68758"
     inkscape:window-width="2560"
     inkscape:window-height="1009"
     inkscape:window-x="-8"
     inkscape:window-y="-8"
     inkscape:window-maximized="1"
     inkscape:current-layer="svg1" />
  <!--!Font Awesome Free 6.7.2 by @fontawesome - https://fontawesome.com License - https://fontawesome.com/license/free Copyright 2025 Fonticons, Inc.-->
  <path
     d="m 467.91636,123.55228 c 0,41.55547 -48.92288,103.55756 -70.03174,128.30873 -3.14563,3.64231 -7.7813,5.04957 -12.00307,4.13899 h -76.90246 c -14.65203,0 -26.48955,11.83752 -26.48955,26.48954 0,14.65203 11.83752,26.48955 26.48955,26.48955 h 79.46863 c 43.87331,0 79.46864,35.59533 79.46864,79.46863 0,43.87331 -35.59533,79.46864 -79.46864,79.46864 H 159.64428 c 7.20185,-8.1952 15.97651,-18.70824 24.83395,-30.46298 5.21513,-6.9535 10.59582,-14.56925 15.72817,-22.51611 h 188.24132 c 14.65203,0 26.48955,-11.83752 26.48955,-26.48955 0,-14.65203 -11.83752,-26.48954 -26.48955,-26.48954 h -79.46863 c -43.87331,0 -79.46863,-35.59533 -79.46863,-79.46864 0,-43.8733 35.59532,-79.46863 79.46863,-79.46863 h 32.94637 c -17.38376,-26.07565 -32.94637,-56.04194 -32.94637,-79.46863 0,-43.873313 35.59533,-79.468639 79.46863,-79.468639 43.87331,0 79.46864,35.595326 79.46864,79.468639 z m -326.89754,325.4075 c -3.14563,3.55953 -5.96015,6.70516 -8.36076,9.35412 l -1.49004,1.6556 -0.16556,-0.16556 c -4.96679,3.80787 -12.08585,3.31119 -16.55597,-1.49004 C 93.585978,435.63223 44.083641,377.27245 44.083641,335.46863 44.083641,291.59533 79.678967,256 123.55228,256 c 43.8733,0 79.46863,35.59533 79.46863,79.46863 0,24.83395 -17.46654,55.46249 -36.00922,81.04146 -8.85745,12.16863 -17.96323,23.17835 -25.49619,31.87023 z m 9.023,-113.49115 a 26.489545,26.489545 0 1 0 -52.979089,0 26.489545,26.489545 0 1 0 52.979089,0 z m 238.4059,-185.42681 a 26.489545,26.489545 0 1 0 0,-52.979089 26.489545,26.489545 0 1 0 0,52.979089 z"
     id="path1"
     style="stroke-width:0.827798;fill:#ffffff;fill-opacity:1" />
</svg>
