<?xml version="1.0" encoding="UTF-8" standalone="no"?>
<svg
   viewBox="0 0 640 640"
   version="1.1"
   id="svg1"
   sodipodi:docname="trowel-bricks-solid-full.svg"
   inkscape:version="1.3.2 (091e20e, 2023-11-25, custom)"
   xmlns:inkscape="http://www.inkscape.org/namespaces/inkscape"
   xmlns:sodipodi="http://sodipodi.sourceforge.net/DTD/sodipodi-0.dtd"
   xmlns="http://www.w3.org/2000/svg"
   xmlns:svg="http://www.w3.org/2000/svg">
  <defs
     id="defs1" />
  <sodipodi:namedview
     id="namedview1"
     pagecolor="#ffffff"
     bordercolor="#000000"
     borderopacity="0.25"
     inkscape:showpageshadow="2"
     inkscape:pageopacity="0.0"
     inkscape:pagecheckerboard="0"
     inkscape:deskcolor="#d1d1d1"
     inkscape:zoom="0.31757813"
     inkscape:cx="558.91758"
     inkscape:cy="626.61746"
     inkscape:window-width="2162"
     inkscape:window-height="868"
     inkscape:window-x="181"
     inkscape:window-y="117"
     inkscape:window-maximized="0"
     inkscape:current-layer="svg1" />
  <!--!Font Awesome Free 7.0.0 by @fontawesome - https://fontawesome.com License - https://fontawesome.com/license/free Copyright 2025 Fonticons, Inc.-->
  <path
     d="M288 96C288 84.5 281.8 73.8 271.8 68.2C261.8 62.6 249.5 62.7 239.6 68.6L79.6 164.6C69.9 170.3 64 180.8 64 192C64 203.2 69.9 213.7 79.5 219.4L239.5 315.4C249.4 321.3 261.7 321.5 271.7 315.8C281.7 310.1 288 299.5 288 288L288 224L544 224C561.7 224 576 209.7 576 192C576 174.3 561.7 160 544 160L288 160L288 96zM384 288C366.3 288 352 302.3 352 320L352 384C352 401.7 366.3 416 384 416L544 416C561.7 416 576 401.7 576 384L576 320C576 302.3 561.7 288 544 288L384 288zM64 480L64 544C64 561.7 78.3 576 96 576L192 576C209.7 576 224 561.7 224 544L224 480C224 462.3 209.7 448 192 448L96 448C78.3 448 64 462.3 64 480zM288 448C270.3 448 256 462.3 256 480L256 544C256 561.7 270.3 576 288 576L544 576C561.7 576 576 561.7 576 544L576 480C576 462.3 561.7 448 544 448L288 448z"
     id="path1"
     style="fill:#ffc080;fill-opacity:1" />
</svg>
