<?xml version="1.0" encoding="UTF-8" standalone="no"?>
<svg
   viewBox="0 0 576 576"
   version="1.1"
   id="svg1"
   sodipodi:docname="wand-magic-sparkles-solid.svg"
   width="576"
   height="576"
   inkscape:version="1.3.2 (091e20e, 2023-11-25, custom)"
   xmlns:inkscape="http://www.inkscape.org/namespaces/inkscape"
   xmlns:sodipodi="http://sodipodi.sourceforge.net/DTD/sodipodi-0.dtd"
   xmlns="http://www.w3.org/2000/svg"
   xmlns:svg="http://www.w3.org/2000/svg">
  <defs
     id="defs1" />
  <sodipodi:namedview
     id="namedview1"
     pagecolor="#000000"
     bordercolor="#000000"
     borderopacity="0.25"
     inkscape:showpageshadow="2"
     inkscape:pageopacity="0.0"
     inkscape:pagecheckerboard="0"
     inkscape:deskcolor="#d1d1d1"
     inkscape:zoom="0.56140411"
     inkscape:cx="200.39041"
     inkscape:cy="373.17148"
     inkscape:window-width="1152"
     inkscape:window-height="751"
     inkscape:window-x="206"
     inkscape:window-y="220"
     inkscape:window-maximized="0"
     inkscape:current-layer="svg1" />
  <!--!Font Awesome Free 6.7.2 by @fontawesome - https://fontawesome.com License - https://fontawesome.com/license/free Copyright 2025 Fonticons, Inc.-->
  <path
     d="M 251.95257,75.767358 215.487,89.40568 c -2.90177,1.063985 -4.83629,3.869027 -4.83629,6.964242 0,3.095226 1.93452,5.900268 4.83629,6.964248 l 36.46557,13.63832 13.63831,36.46557 c 1.06398,2.90177 3.86903,4.83628 6.96425,4.83628 3.09522,0 5.90026,-1.93451 6.96424,-4.83628 l 13.63833,-36.46557 36.46556,-13.63832 c 2.90177,-1.06398 4.83628,-3.869022 4.83628,-6.964248 0,-3.095215 -1.93451,-5.900257 -4.83628,-6.964242 L 293.1577,75.767358 279.51937,39.301795 c -1.06398,-2.901769 -3.86902,-4.836282 -6.96424,-4.836282 -3.09522,0 -5.90027,1.934513 -6.96425,4.836282 z M 69.527996,416.91871 c -18.087697,18.08771 -18.087697,47.4923 0,65.67672 l 33.467064,33.46708 c 18.08771,18.08769 47.4923,18.08769 65.67672,0 L 537.48667,147.15089 c 18.08771,-18.0877 18.08771,-47.492298 0,-65.67672 L 504.0196,48.103829 c -18.0877,-18.087696 -47.49229,-18.087696 -65.67671,0 z M 493.66996,114.3609 392.10803,215.92282 369.57096,193.38575 471.13288,91.823822 Z M 32.191897,147.82796 c -4.352654,1.64434 -7.254424,5.80354 -7.254424,10.44638 0,4.64283 2.90177,8.80203 7.254424,10.44637 l 54.649987,20.50584 20.505836,54.64998 c 1.64434,4.35265 5.80354,7.25443 10.44638,7.25443 4.64283,0 8.80203,-2.90178 10.44637,-7.25443 l 20.50583,-54.64998 54.65,-20.50584 c 4.35264,-1.64434 7.25441,-5.80354 7.25441,-10.44637 0,-4.64284 -2.90177,-8.80204 -7.25441,-10.44638 l -54.65,-20.50583 -20.50583,-54.649984 c -1.64434,-4.352655 -5.80354,-7.254425 -10.44637,-7.254425 -4.64284,0 -8.80204,2.90177 -10.44638,7.254425 L 86.841884,127.32213 Z M 372.66617,395.44562 c -4.35265,1.64434 -7.25442,5.80354 -7.25442,10.44637 0,4.64284 2.90177,8.80204 7.25442,10.44638 l 54.65,20.50583 20.50583,54.64999 c 1.64434,4.35265 5.80354,7.25442 10.44637,7.25442 4.64283,0 8.80204,-2.90177 10.44637,-7.25442 l 20.50584,-54.64999 54.64999,-20.50583 c 4.35266,-1.64434 7.25443,-5.80354 7.25443,-10.44638 0,-4.64283 -2.90177,-8.80203 -7.25443,-10.44637 L 489.22058,374.93978 468.71474,320.2898 c -1.64433,-4.35265 -5.80354,-7.25442 -10.44637,-7.25442 -4.64283,0 -8.80203,2.90177 -10.44637,7.25442 l -20.50583,54.64998 z"
     id="path1"
     style="fill:#fcc07f;fill-opacity:1;stroke-width:0.967257" />
</svg>
