<?xml version="1.0" encoding="UTF-8" standalone="no"?>
<svg
   viewBox="0 0 640 640"
   version="1.1"
   id="svg1"
   sodipodi:docname="arrows-down-to-line-solid-full.svg"
   inkscape:version="1.3.2 (091e20e, 2023-11-25, custom)"
   xmlns:inkscape="http://www.inkscape.org/namespaces/inkscape"
   xmlns:sodipodi="http://sodipodi.sourceforge.net/DTD/sodipodi-0.dtd"
   xmlns="http://www.w3.org/2000/svg"
   xmlns:svg="http://www.w3.org/2000/svg">
  <defs
     id="defs1" />
  <sodipodi:namedview
     id="namedview1"
     pagecolor="#ffffff"
     bordercolor="#000000"
     borderopacity="0.25"
     inkscape:showpageshadow="2"
     inkscape:pageopacity="0.0"
     inkscape:pagecheckerboard="0"
     inkscape:deskcolor="#d1d1d1"
     inkscape:zoom="1.2703125"
     inkscape:cx="320"
     inkscape:cy="320"
     inkscape:window-width="2560"
     inkscape:window-height="1009"
     inkscape:window-x="-8"
     inkscape:window-y="-8"
     inkscape:window-maximized="1"
     inkscape:current-layer="svg1" />
  <!--!Font Awesome Free 7.0.0 by @fontawesome - https://fontawesome.com License - https://fontawesome.com/license/free Copyright 2025 Fonticons, Inc.-->
  <path
     d="M278.6 374.6L214.6 438.6C202.1 451.1 181.8 451.1 169.3 438.6L105.3 374.6C92.8 362.1 92.8 341.8 105.3 329.3C117.8 316.8 138.1 316.8 150.6 329.3L160 338.7L160 96C160 78.3 174.3 64 192 64C209.7 64 224 78.3 224 96L224 338.7L233.4 329.3C245.9 316.8 266.2 316.8 278.7 329.3C291.2 341.8 291.2 362.1 278.7 374.6zM534.6 374.6L470.6 438.6C458.1 451.1 437.8 451.1 425.3 438.6L361.3 374.6C348.8 362.1 348.8 341.8 361.3 329.3C373.8 316.8 394.1 316.8 406.6 329.3L416 338.7L416 96C416 78.3 430.3 64 448 64C465.7 64 480 78.3 480 96L480 338.7L489.4 329.3C501.9 316.8 522.2 316.8 534.7 329.3C547.2 341.8 547.2 362.1 534.7 374.6zM96 576C78.3 576 64 561.7 64 544C64 526.3 78.3 512 96 512L544 512C561.7 512 576 526.3 576 544C576 561.7 561.7 576 544 576L96 576z"
     id="path1"
     style="fill:#ffc080;fill-opacity:1" />
</svg>
