<?xml version="1.0" encoding="UTF-8" standalone="no"?>
<svg
   viewBox="0 0 640 640"
   version="1.1"
   id="svg1"
   sodipodi:docname="camera-rotate-solid.svg"
   width="640"
   height="640"
   inkscape:version="1.3.2 (091e20e, 2023-11-25, custom)"
   xmlns:inkscape="http://www.inkscape.org/namespaces/inkscape"
   xmlns:sodipodi="http://sodipodi.sourceforge.net/DTD/sodipodi-0.dtd"
   xmlns="http://www.w3.org/2000/svg"
   xmlns:svg="http://www.w3.org/2000/svg">
  <defs
     id="defs1" />
  <sodipodi:namedview
     id="namedview1"
     pagecolor="#000000"
     bordercolor="#000000"
     borderopacity="0.25"
     inkscape:showpageshadow="2"
     inkscape:pageopacity="0.0"
     inkscape:pagecheckerboard="0"
     inkscape:deskcolor="#d1d1d1"
     inkscape:zoom="0.79394531"
     inkscape:cx="306.69619"
     inkscape:cy="336.92497"
     inkscape:window-width="2560"
     inkscape:window-height="1009"
     inkscape:window-x="-8"
     inkscape:window-y="-8"
     inkscape:window-maximized="1"
     inkscape:current-layer="svg1" />
  <!--!Font Awesome Free 6.7.2 by @fontawesome - https://fontawesome.com License - https://fontawesome.com/license/free Copyright 2025 Fonticons, Inc.-->
  <path
     d="m 213.1,120.21943 -10.4,31.2 H 128 c -35.3,0 -64,28.7 -64,64 v 256 c 0,35.3 28.7,64 64,64 h 384 c 35.3,0 64,-28.7 64,-64 v -256 c 0,-35.3 -28.7,-64 -64,-64 h -74.7 l -10.4,-31.2 c -6.5,-19.6 -24.8,-32.799996 -45.5,-32.799996 H 258.6 c -20.7,0 -39,13.199996 -45.5,32.799996 z m 234.9,191.2 c 0,8.8 -7.2,16 -16,16 h -76.7 c -6.2,0 -11.3,-5.1 -11.3,-11.3 0,-3 1.2,-5.9 3.3,-8 l 23.7,-23.7 c -13.6,-13.4 -31.9,-21 -51,-21 -19.2,0 -37.7,7.6 -51.3,21.3 l -19.7,19.7 c -9.4,9.4 -24.6,9.4 -33.9,0 -9.3,-9.4 -9.4,-24.6 0,-33.9 l 19.7,-19.7 c 22.6,-22.7 53.2,-35.4 85.2,-35.4 31.8,0 62.4,12.6 85,35 l 23.7,-23.7 c 2.1,-2.1 5,-3.3 8,-3.3 6.2,0 11.3,5.1 11.3,11.3 z m -256,64 c 0,-8.8 7.2,-16 16,-16 h 76.7 c 6.2,0 11.3,5.1 11.3,11.3 0,3 -1.2,5.9 -3.3,8 l -23.7,23.7 c 13.6,13.4 31.9,21 51,21 19.2,0 37.7,-7.6 51.3,-21.3 l 19.7,-19.7 c 9.4,-9.4 24.6,-9.4 33.9,0 9.3,9.4 9.4,24.6 0,33.9 l -19.7,19.7 c -22.6,22.7 -53.2,35.4 -85.2,35.4 -31.8,0 -62.4,-12.6 -85,-35 l -23.7,23.7 c -2.1,2.1 -5,3.3 -8,3.3 -6.2,0 -11.3,-5.1 -11.3,-11.3 z"
     id="path1"
     style="fill:#ffffff;fill-opacity:1" />
</svg>
