<?xml version="1.0" encoding="UTF-8" standalone="no"?>
<svg
   viewBox="0 0 512 512"
   version="1.1"
   id="svg1"
   sodipodi:docname="film-solid.svg"
   inkscape:version="1.3.2 (091e20e, 2023-11-25, custom)"
   xmlns:inkscape="http://www.inkscape.org/namespaces/inkscape"
   xmlns:sodipodi="http://sodipodi.sourceforge.net/DTD/sodipodi-0.dtd"
   xmlns="http://www.w3.org/2000/svg"
   xmlns:svg="http://www.w3.org/2000/svg">
  <defs
     id="defs1" />
  <sodipodi:namedview
     id="namedview1"
     pagecolor="#000000"
     bordercolor="#000000"
     borderopacity="0.25"
     inkscape:showpageshadow="2"
     inkscape:pageopacity="0.0"
     inkscape:pagecheckerboard="0"
     inkscape:deskcolor="#d1d1d1"
     inkscape:zoom="0.56140411"
     inkscape:cx="-136.26548"
     inkscape:cy="303.7028"
     inkscape:window-width="2560"
     inkscape:window-height="1009"
     inkscape:window-x="-8"
     inkscape:window-y="-8"
     inkscape:window-maximized="1"
     inkscape:current-layer="svg1" />
  <!--!Font Awesome Free 6.7.2 by @fontawesome - https://fontawesome.com License - https://fontawesome.com/license/free Copyright 2025 Fonticons, Inc.-->
  <path
     d="m 35.624962,118.2656 c 0,-30.387651 24.706107,-55.093759 55.093759,-55.093759 H 421.28128 c 30.38765,0 55.09376,24.706108 55.09376,55.093759 v 275.4688 c 0,30.38765 -24.70611,55.09376 -55.09376,55.09376 H 90.718721 c -30.387652,0 -55.093759,-24.70611 -55.093759,-55.09376 z m 41.320319,234.14848 v 27.54688 c 0,7.57539 6.198048,13.77344 13.77344,13.77344 H 118.2656 c 7.57539,0 13.77344,-6.19805 13.77344,-13.77344 v -27.54688 c 0,-7.57539 -6.19805,-13.77344 -13.77344,-13.77344 H 90.718721 c -7.575392,0 -13.77344,6.19805 -13.77344,13.77344 z M 393.7344,338.64064 c -7.57539,0 -13.77344,6.19805 -13.77344,13.77344 v 27.54688 c 0,7.57539 6.19805,13.77344 13.77344,13.77344 h 27.54688 c 7.57539,0 13.77344,-6.19805 13.77344,-13.77344 v -27.54688 c 0,-7.57539 -6.19805,-13.77344 -13.77344,-13.77344 z M 76.945281,242.22656 v 27.54688 c 0,7.57539 6.198048,13.77344 13.77344,13.77344 H 118.2656 c 7.57539,0 13.77344,-6.19805 13.77344,-13.77344 v -27.54688 c 0,-7.57539 -6.19805,-13.77344 -13.77344,-13.77344 H 90.718721 c -7.575392,0 -13.77344,6.19805 -13.77344,13.77344 z M 393.7344,228.45312 c -7.57539,0 -13.77344,6.19805 -13.77344,13.77344 v 27.54688 c 0,7.57539 6.19805,13.77344 13.77344,13.77344 h 27.54688 c 7.57539,0 13.77344,-6.19805 13.77344,-13.77344 v -27.54688 c 0,-7.57539 -6.19805,-13.77344 -13.77344,-13.77344 z M 76.945281,132.03904 v 27.54688 c 0,7.57539 6.198048,13.77344 13.77344,13.77344 H 118.2656 c 7.57539,0 13.77344,-6.19805 13.77344,-13.77344 v -27.54688 c 0,-7.57539 -6.19805,-13.77344 -13.77344,-13.77344 H 90.718721 c -7.575392,0 -13.77344,6.19805 -13.77344,13.77344 z M 393.7344,118.2656 c -7.57539,0 -13.77344,6.19805 -13.77344,13.77344 v 27.54688 c 0,7.57539 6.19805,13.77344 13.77344,13.77344 h 27.54688 c 7.57539,0 13.77344,-6.19805 13.77344,-13.77344 v -27.54688 c 0,-7.57539 -6.19805,-13.77344 -13.77344,-13.77344 z m -220.37504,27.54688 v 55.09376 c 0,15.23687 12.31001,27.54688 27.54688,27.54688 h 110.18752 c 15.23687,0 27.54688,-12.31001 27.54688,-27.54688 v -55.09376 c 0,-15.23687 -12.31001,-27.54688 -27.54688,-27.54688 H 200.90624 c -15.23687,0 -27.54688,12.31001 -27.54688,27.54688 z m 27.54688,137.7344 c -15.23687,0 -27.54688,12.31001 -27.54688,27.54688 v 55.09376 c 0,15.23687 12.31001,27.54688 27.54688,27.54688 h 110.18752 c 15.23687,0 27.54688,-12.31001 27.54688,-27.54688 v -55.09376 c 0,-15.23687 -12.31001,-27.54688 -27.54688,-27.54688 z"
     id="path1"
     style="fill:#ffc080;fill-opacity:1;stroke-width:0.86084" />
</svg>
