<?xml version="1.0" encoding="UTF-8" standalone="no"?>
<svg
   viewBox="0 0 640 640"
   version="1.1"
   id="svg1"
   sodipodi:docname="masks-theater-solid.svg"
   width="640"
   height="640"
   inkscape:version="1.3.2 (091e20e, 2023-11-25, custom)"
   xmlns:inkscape="http://www.inkscape.org/namespaces/inkscape"
   xmlns:sodipodi="http://sodipodi.sourceforge.net/DTD/sodipodi-0.dtd"
   xmlns="http://www.w3.org/2000/svg"
   xmlns:svg="http://www.w3.org/2000/svg">
  <defs
     id="defs1" />
  <sodipodi:namedview
     id="namedview1"
     pagecolor="#000000"
     bordercolor="#000000"
     borderopacity="0.25"
     inkscape:showpageshadow="2"
     inkscape:pageopacity="0.0"
     inkscape:pagecheckerboard="0"
     inkscape:deskcolor="#d1d1d1"
     inkscape:zoom="0.79394531"
     inkscape:cx="87.537515"
     inkscape:cy="369.67282"
     inkscape:window-width="2560"
     inkscape:window-height="1009"
     inkscape:window-x="-8"
     inkscape:window-y="-8"
     inkscape:window-maximized="1"
     inkscape:current-layer="svg1" />
  <!--!Font Awesome Free 6.7.2 by @fontawesome - https://fontawesome.com License - https://fontawesome.com/license/free Copyright 2025 Fonticons, Inc.-->
  <path
     d="m 97.780612,426.30548 c 37.760198,32.68928 97.796188,74.70542 150.406908,66.73684 5.52368,-0.81497 10.9568,-2.2638 16.29937,-4.07484 -8.33079,-11.1379 -15.6655,-22.09469 -21.91359,-32.05541 -19.8309,-31.69321 -26.07899,-68.09513 -23.45298,-102.8671 -18.65371,3.71263 -35.49639,11.77176 -49.53195,23.00021 -5.88589,4.70871 -14.75998,1.17718 -13.4017,-6.33864 5.79533,-30.33493 29.88216,-55.14618 61.75648,-60.03599 2.35435,-0.36221 4.79925,-0.63387 7.15361,-0.72442 l 17.56709,-118.8948 c 1.81104,-12.49618 7.24416,-29.61051 22.638,-41.56338 16.84268,-12.94894 46.09098,-27.61837 93.8119,-31.96486 -0.72442,-0.63387 -1.44883,-1.26773 -2.17325,-1.9016 C 338.64899,101.49538 291.38084,77.951853 189.32871,93.436248 87.276578,108.92064 48.791968,145.41311 35.390269,164.33848 c -5.161465,7.24416 -5.885882,16.38992 -4.618153,25.26401 l 21.913589,148.77698 c 4.980361,33.7759 19.468685,65.74077 45.094907,88.01656 z M 177.19474,227.45324 c 3.98429,-2.80711 9.77961,-1.81104 10.68513,2.98822 0.0906,0.45276 0.18111,0.99607 0.27166,1.44883 2.89767,19.74034 -10.50403,38.03185 -29.97272,41.02007 -19.46868,2.98821 -37.57909,-10.68514 -40.47675,-30.33493 -0.0906,-0.45276 -0.0906,-0.99607 -0.18111,-1.44883 -0.54331,-4.88981 4.70871,-7.60637 9.32686,-6.06699 8.14968,2.71656 17.02378,3.53153 25.98843,2.17325 8.96465,-1.35828 17.29544,-4.79926 24.26794,-9.77962 z m 89.91815,214.06498 c 26.6223,42.4689 71.98886,100.42219 124.59959,108.39077 52.61072,7.96858 112.73727,-33.95701 150.40691,-66.73684 25.62622,-22.18524 40.11454,-54.15011 45.0949,-88.01656 l 21.91359,-148.77698 c 1.26773,-8.8741 0.54332,-18.01985 -4.61815,-25.26401 -13.4017,-18.92537 -51.88631,-55.41784 -153.93844,-70.90224 -102.05213,-15.48439 -149.22973,8.05913 -167.52124,22.18525 -7.06306,5.43312 -10.41348,13.94501 -11.68121,22.81911 l -21.91359,148.77697 c -4.98036,33.77591 -0.36221,68.63844 17.7482,97.52453 z M 396.51174,301.43424 c -6.97251,-4.98036 -15.21274,-8.42134 -24.26795,-9.77962 -9.0552,-1.35828 -17.9293,-0.54331 -25.98843,2.17325 -4.61815,1.53939 -9.87017,-1.17717 -9.32686,-6.06698 0.0906,-0.45276 0.0906,-0.99608 0.18111,-1.44884 2.89766,-19.74034 21.00807,-33.32314 40.47675,-30.33492 19.46869,2.98821 32.87039,21.27972 29.97272,41.02006 -0.0906,0.45276 -0.1811,0.99608 -0.27165,1.44884 -0.90552,4.79925 -6.70085,5.79533 -10.68514,2.98821 z m 123.33185,14.03557 c -0.90552,4.79925 -6.70085,5.79533 -10.68514,2.98821 -6.9725,-4.98036 -15.21274,-8.42134 -24.26794,-9.77962 -9.0552,-1.35828 -17.9293,-0.54331 -25.98843,2.17325 -4.61815,1.53939 -9.87017,-1.17717 -9.32686,-6.06698 0.0906,-0.45276 0.0906,-0.99607 0.1811,-1.44883 2.89767,-19.74035 21.00807,-33.32315 40.47676,-30.33493 19.46868,2.98821 32.87038,21.27972 29.97272,41.02006 -0.0906,0.45276 -0.18111,0.99608 -0.27166,1.44884 z m -9.68907,90.00871 c -17.74819,40.47675 -60.48875,65.65021 -105.76476,58.76826 -45.27601,-6.88195 -78.87081,-43.64608 -84.21338,-87.56381 -0.90552,-7.51581 8.05913,-10.95679 13.76391,-6.06698 21.64193,18.83482 48.53588,31.96486 78.78026,36.49246 30.24437,4.5276 59.85488,0.0906 85.93387,-11.59066 6.88195,-3.07876 14.48832,2.89767 11.40955,9.87017 z"
     id="path1"
     style="fill:#fdffff;fill-opacity:1;stroke-width:0.90552" />
</svg>
