<?xml version="1.0" encoding="UTF-8" standalone="no"?>
<svg
   viewBox="0 0 576 576"
   version="1.1"
   id="svg1"
   sodipodi:docname="plane-solid.svg"
   width="576"
   height="576"
   inkscape:version="1.3.2 (091e20e, 2023-11-25, custom)"
   xmlns:inkscape="http://www.inkscape.org/namespaces/inkscape"
   xmlns:sodipodi="http://sodipodi.sourceforge.net/DTD/sodipodi-0.dtd"
   xmlns="http://www.w3.org/2000/svg"
   xmlns:svg="http://www.w3.org/2000/svg">
  <defs
     id="defs1" />
  <sodipodi:namedview
     id="namedview1"
     pagecolor="#000000"
     bordercolor="#000000"
     borderopacity="0.25"
     inkscape:showpageshadow="2"
     inkscape:pageopacity="0.0"
     inkscape:pagecheckerboard="0"
     inkscape:deskcolor="#d1d1d1"
     inkscape:zoom="0.79394531"
     inkscape:cx="367.15375"
     inkscape:cy="306.69619"
     inkscape:window-width="2560"
     inkscape:window-height="1009"
     inkscape:window-x="-8"
     inkscape:window-y="-8"
     inkscape:window-maximized="1"
     inkscape:current-layer="svg1" />
  <!--!Font Awesome Free 6.7.2 by @fontawesome - https://fontawesome.com License - https://fontawesome.com/license/free Copyright 2025 Fonticons, Inc.-->
  <path
     d="m 462.22472,232.61993 c 30.66642,0 84.01882,26.00369 84.01882,57.38745 0,32.28044 -53.3524,57.38745 -84.01882,57.38745 H 357.67196 l -90.11624,157.72583 c -5.11107,8.96679 -14.61587,14.43654 -24.92768,14.43654 h -50.39335 c -9.5048,0 -16.40923,-9.14613 -13.80886,-18.29226 L 222.3631,347.39483 h -92.1786 l -38.73653,51.64871 c -2.690036,3.58672 -6.994095,5.73875 -11.47749,5.73875 H 42.309963 c -6.994096,0 -12.553505,-5.64908 -12.553505,-12.55351 0,-1.16568 0.179335,-2.33136 0.448339,-3.49705 L 58.450184,290.00738 30.204797,191.28303 c -0.358672,-1.16569 -0.448339,-2.33137 -0.448339,-3.49705 0,-6.9941 5.649077,-12.55351 12.553505,-12.55351 H 79.97048 c 4.483395,0 8.787454,2.15203 11.47749,5.73875 l 38.73653,51.64871 h 92.26827 L 178.5155,78.749815 c -2.69004,-9.146125 4.21439,-18.292251 13.71919,-18.292251 h 50.39335 c 10.31181,0 19.81661,5.55941 24.92768,14.436532 l 90.11624,157.725834 z"
     id="path1"
     style="fill:#feffff;fill-opacity:1;stroke-width:0.896679" />
</svg>
